<mxfile host="app.diagrams.net" modified="2023-09-25T01:20:41.726Z" agent="Mozilla/5.0 (Windows NT 10.0; Win64; x64) AppleWebKit/537.36 (KHTML, like Gecko) Chrome/117.0.0.0 Safari/537.36" etag="7IyGqjr03SNODMqtFeAy" version="21.8.2" type="github">
  <diagram name="Page-1" id="NsikWuQgQzvI2flJo1Lz">
    <mxGraphModel dx="1509" dy="789" grid="1" gridSize="10" guides="1" tooltips="1" connect="1" arrows="1" fold="1" page="1" pageScale="1" pageWidth="827" pageHeight="1169" math="0" shadow="0">
      <root>
        <mxCell id="0" />
        <mxCell id="1" parent="0" />
        <mxCell id="g1QDwC85sD16Sms51a_H-2" value="" style="rounded=0;whiteSpace=wrap;html=1;rotation=-90;" parent="1" vertex="1">
          <mxGeometry x="530" y="200" width="450" height="120" as="geometry" />
        </mxCell>
        <mxCell id="g1QDwC85sD16Sms51a_H-3" value="Container Registry&lt;br&gt;(Docker hub)" style="text;html=1;strokeColor=none;fillColor=none;align=center;verticalAlign=middle;whiteSpace=wrap;rounded=0;" parent="1" vertex="1">
          <mxGeometry x="700" y="172.5" width="110" height="70" as="geometry" />
        </mxCell>
        <mxCell id="g1QDwC85sD16Sms51a_H-4" value="" style="rounded=0;whiteSpace=wrap;html=1;" parent="1" vertex="1">
          <mxGeometry x="40" y="40" width="560" height="440" as="geometry" />
        </mxCell>
        <mxCell id="g1QDwC85sD16Sms51a_H-7" value="" style="rounded=0;whiteSpace=wrap;html=1;" parent="1" vertex="1">
          <mxGeometry x="125" y="100" width="410" height="215" as="geometry" />
        </mxCell>
        <mxCell id="g1QDwC85sD16Sms51a_H-5" value="Docker container (python: 3.9.7)" style="text;html=1;strokeColor=none;fillColor=none;align=center;verticalAlign=middle;whiteSpace=wrap;rounded=0;" parent="1" vertex="1">
          <mxGeometry x="285" y="110" width="90" height="50" as="geometry" />
        </mxCell>
        <mxCell id="g1QDwC85sD16Sms51a_H-11" style="edgeStyle=orthogonalEdgeStyle;rounded=0;orthogonalLoop=1;jettySize=auto;html=1;exitX=0.616;exitY=-0.015;exitDx=0;exitDy=0;exitPerimeter=0;" parent="1" source="g1QDwC85sD16Sms51a_H-2" target="g1QDwC85sD16Sms51a_H-7" edge="1">
          <mxGeometry relative="1" as="geometry">
            <mxPoint x="680" y="208" as="sourcePoint" />
          </mxGeometry>
        </mxCell>
        <mxCell id="g1QDwC85sD16Sms51a_H-6" value="" style="rounded=0;whiteSpace=wrap;html=1;" parent="1" vertex="1">
          <mxGeometry x="235" y="172.5" width="190" height="70" as="geometry" />
        </mxCell>
        <mxCell id="g1QDwC85sD16Sms51a_H-8" value="Application" style="text;html=1;strokeColor=none;fillColor=none;align=center;verticalAlign=middle;whiteSpace=wrap;rounded=0;" parent="1" vertex="1">
          <mxGeometry x="290" y="192.5" width="60" height="30" as="geometry" />
        </mxCell>
        <mxCell id="g1QDwC85sD16Sms51a_H-9" value="Server" style="text;html=1;strokeColor=none;fillColor=none;align=center;verticalAlign=middle;whiteSpace=wrap;rounded=0;" parent="1" vertex="1">
          <mxGeometry x="290" y="50" width="60" height="30" as="geometry" />
        </mxCell>
        <mxCell id="g1QDwC85sD16Sms51a_H-13" value="Pull image:&lt;br&gt;restaurant-app: latest" style="text;html=1;strokeColor=none;fillColor=none;align=center;verticalAlign=middle;whiteSpace=wrap;rounded=0;" parent="1" vertex="1">
          <mxGeometry x="600" y="160" width="90" height="50" as="geometry" />
        </mxCell>
        <mxCell id="Ux_S10V8FB0lo7fHF2h9-1" value="" style="rounded=0;whiteSpace=wrap;html=1;" vertex="1" parent="1">
          <mxGeometry x="290" y="315" width="80" height="40" as="geometry" />
        </mxCell>
        <mxCell id="Ux_S10V8FB0lo7fHF2h9-2" value="Port 80" style="text;html=1;strokeColor=none;fillColor=none;align=center;verticalAlign=middle;whiteSpace=wrap;rounded=0;" vertex="1" parent="1">
          <mxGeometry x="300" y="320" width="60" height="30" as="geometry" />
        </mxCell>
        <mxCell id="Ux_S10V8FB0lo7fHF2h9-7" value="" style="group" vertex="1" connectable="0" parent="1">
          <mxGeometry x="290" y="480" width="80" height="40" as="geometry" />
        </mxCell>
        <mxCell id="Ux_S10V8FB0lo7fHF2h9-8" value="" style="rounded=0;whiteSpace=wrap;html=1;" vertex="1" parent="Ux_S10V8FB0lo7fHF2h9-7">
          <mxGeometry width="80" height="40" as="geometry" />
        </mxCell>
        <mxCell id="Ux_S10V8FB0lo7fHF2h9-9" value="Port 4000&lt;br&gt;" style="text;html=1;strokeColor=none;fillColor=none;align=center;verticalAlign=middle;whiteSpace=wrap;rounded=0;" vertex="1" parent="Ux_S10V8FB0lo7fHF2h9-7">
          <mxGeometry x="10" y="5" width="60" height="30" as="geometry" />
        </mxCell>
        <mxCell id="Ux_S10V8FB0lo7fHF2h9-10" value="" style="endArrow=classic;html=1;rounded=0;exitX=0.5;exitY=1;exitDx=0;exitDy=0;" edge="1" parent="1" source="Ux_S10V8FB0lo7fHF2h9-1">
          <mxGeometry width="50" height="50" relative="1" as="geometry">
            <mxPoint x="343.85" y="390" as="sourcePoint" />
            <mxPoint x="330.0038461538461" y="480" as="targetPoint" />
          </mxGeometry>
        </mxCell>
        <mxCell id="Ux_S10V8FB0lo7fHF2h9-12" value="" style="rounded=0;whiteSpace=wrap;html=1;" vertex="1" parent="1">
          <mxGeometry x="40" y="660" width="120" height="60" as="geometry" />
        </mxCell>
        <mxCell id="Ux_S10V8FB0lo7fHF2h9-14" value="/" style="text;html=1;strokeColor=none;fillColor=none;align=center;verticalAlign=middle;whiteSpace=wrap;rounded=0;" vertex="1" parent="1">
          <mxGeometry x="65" y="675" width="60" height="30" as="geometry" />
        </mxCell>
        <mxCell id="Ux_S10V8FB0lo7fHF2h9-18" value="" style="group" vertex="1" connectable="0" parent="1">
          <mxGeometry x="240" y="660" width="180" height="60" as="geometry" />
        </mxCell>
        <mxCell id="Ux_S10V8FB0lo7fHF2h9-11" value="" style="rounded=0;whiteSpace=wrap;html=1;" vertex="1" parent="Ux_S10V8FB0lo7fHF2h9-18">
          <mxGeometry width="180" height="60" as="geometry" />
        </mxCell>
        <mxCell id="Ux_S10V8FB0lo7fHF2h9-16" value="/download/restaurant_data.csv" style="text;html=1;strokeColor=none;fillColor=none;align=center;verticalAlign=middle;whiteSpace=wrap;rounded=0;" vertex="1" parent="Ux_S10V8FB0lo7fHF2h9-18">
          <mxGeometry x="60" y="15" width="60" height="30" as="geometry" />
        </mxCell>
        <mxCell id="Ux_S10V8FB0lo7fHF2h9-19" value="" style="group" vertex="1" connectable="0" parent="1">
          <mxGeometry x="530" y="660" width="210" height="60" as="geometry" />
        </mxCell>
        <mxCell id="Ux_S10V8FB0lo7fHF2h9-20" value="" style="rounded=0;whiteSpace=wrap;html=1;" vertex="1" parent="Ux_S10V8FB0lo7fHF2h9-19">
          <mxGeometry width="210" height="60" as="geometry" />
        </mxCell>
        <mxCell id="Ux_S10V8FB0lo7fHF2h9-21" value="/download/restaurant_events.csv:" style="text;html=1;strokeColor=none;fillColor=none;align=center;verticalAlign=middle;whiteSpace=wrap;rounded=0;" vertex="1" parent="Ux_S10V8FB0lo7fHF2h9-19">
          <mxGeometry x="75" y="15" width="60" height="30" as="geometry" />
        </mxCell>
        <mxCell id="Ux_S10V8FB0lo7fHF2h9-23" value="" style="endArrow=classic;html=1;rounded=0;entryX=0.5;entryY=0;entryDx=0;entryDy=0;exitX=0;exitY=0.5;exitDx=0;exitDy=0;" edge="1" parent="1" source="Ux_S10V8FB0lo7fHF2h9-8" target="Ux_S10V8FB0lo7fHF2h9-12">
          <mxGeometry width="50" height="50" relative="1" as="geometry">
            <mxPoint x="290" y="650" as="sourcePoint" />
            <mxPoint x="340" y="600" as="targetPoint" />
            <Array as="points">
              <mxPoint x="100" y="500" />
            </Array>
          </mxGeometry>
        </mxCell>
        <mxCell id="Ux_S10V8FB0lo7fHF2h9-24" value="" style="endArrow=classic;html=1;rounded=0;entryX=0.5;entryY=0;entryDx=0;entryDy=0;" edge="1" parent="1" target="Ux_S10V8FB0lo7fHF2h9-11">
          <mxGeometry width="50" height="50" relative="1" as="geometry">
            <mxPoint x="330" y="520" as="sourcePoint" />
            <mxPoint x="340" y="600" as="targetPoint" />
          </mxGeometry>
        </mxCell>
        <mxCell id="Ux_S10V8FB0lo7fHF2h9-25" value="" style="endArrow=classic;html=1;rounded=0;exitX=1;exitY=0.5;exitDx=0;exitDy=0;entryX=0.5;entryY=0;entryDx=0;entryDy=0;" edge="1" parent="1" source="Ux_S10V8FB0lo7fHF2h9-8" target="Ux_S10V8FB0lo7fHF2h9-20">
          <mxGeometry width="50" height="50" relative="1" as="geometry">
            <mxPoint x="290" y="650" as="sourcePoint" />
            <mxPoint x="340" y="600" as="targetPoint" />
            <Array as="points">
              <mxPoint x="635" y="500" />
            </Array>
          </mxGeometry>
        </mxCell>
        <mxCell id="Ux_S10V8FB0lo7fHF2h9-26" value="GET aggregate ratings" style="text;html=1;strokeColor=none;fillColor=none;align=center;verticalAlign=middle;whiteSpace=wrap;rounded=0;" vertex="1" parent="1">
          <mxGeometry x="110" y="740" width="60" height="30" as="geometry" />
        </mxCell>
        <mxCell id="Ux_S10V8FB0lo7fHF2h9-27" value="GET download restaurant_data.csv" style="text;html=1;strokeColor=none;fillColor=none;align=center;verticalAlign=middle;whiteSpace=wrap;rounded=0;" vertex="1" parent="1">
          <mxGeometry x="360" y="730" width="85" height="50" as="geometry" />
        </mxCell>
        <mxCell id="Ux_S10V8FB0lo7fHF2h9-28" value="GET download restaurant_events.csv" style="text;html=1;strokeColor=none;fillColor=none;align=center;verticalAlign=middle;whiteSpace=wrap;rounded=0;" vertex="1" parent="1">
          <mxGeometry x="670" y="735" width="70" height="40" as="geometry" />
        </mxCell>
        <mxCell id="Ux_S10V8FB0lo7fHF2h9-29" value="" style="endArrow=classic;html=1;rounded=0;exitX=0.5;exitY=1;exitDx=0;exitDy=0;" edge="1" parent="1" source="Ux_S10V8FB0lo7fHF2h9-12">
          <mxGeometry width="50" height="50" relative="1" as="geometry">
            <mxPoint x="370" y="640" as="sourcePoint" />
            <mxPoint x="100" y="800" as="targetPoint" />
          </mxGeometry>
        </mxCell>
        <mxCell id="Ux_S10V8FB0lo7fHF2h9-30" value="" style="endArrow=classic;html=1;rounded=0;exitX=0.5;exitY=1;exitDx=0;exitDy=0;" edge="1" parent="1">
          <mxGeometry width="50" height="50" relative="1" as="geometry">
            <mxPoint x="329.63" y="720" as="sourcePoint" />
            <mxPoint x="329.63" y="800" as="targetPoint" />
          </mxGeometry>
        </mxCell>
        <mxCell id="Ux_S10V8FB0lo7fHF2h9-31" value="" style="endArrow=classic;html=1;rounded=0;exitX=0.5;exitY=1;exitDx=0;exitDy=0;" edge="1" parent="1">
          <mxGeometry width="50" height="50" relative="1" as="geometry">
            <mxPoint x="634.63" y="720" as="sourcePoint" />
            <mxPoint x="634.63" y="800" as="targetPoint" />
          </mxGeometry>
        </mxCell>
      </root>
    </mxGraphModel>
  </diagram>
</mxfile>
